<?xml version="1.0" encoding="UTF-8" standalone="no"?>
<!-- Created with Inkscape (http://www.inkscape.org/) -->

<svg
   xmlns:dc="http://purl.org/dc/elements/1.1/"
   xmlns:cc="http://creativecommons.org/ns#"
   xmlns:rdf="http://www.w3.org/1999/02/22-rdf-syntax-ns#"
   xmlns:svg="http://www.w3.org/2000/svg"
   xmlns="http://www.w3.org/2000/svg"
   xmlns:xlink="http://www.w3.org/1999/xlink"
   xmlns:sodipodi="http://sodipodi.sourceforge.net/DTD/sodipodi-0.dtd"
   xmlns:inkscape="http://www.inkscape.org/namespaces/inkscape"
   width="600"
   height="600"
   viewBox="0 0 600.00001 600.00001"
   id="svg2"
   version="1.1"
   inkscape:version="0.91 r13725"
   sodipodi:docname="unai.svg.2017_03_25_22_32_32.0.svg"
   inkscape:export-filename="2.png"
   inkscape:export-xdpi="90"
   inkscape:export-ydpi="90">
  <defs
     id="defs4">
    <linearGradient
       inkscape:collect="always"
       id="linearGradient4382">
      <stop
         style="stop-color:#4c3722;stop-opacity:0"
         offset="0"
         id="stop4384" />
      <stop
         id="stop4386"
         offset="0.58724546"
         style="stop-color:#1a130c;stop-opacity:0.59624416" />
      <stop
         style="stop-color:#241a10;stop-opacity:1"
         offset="1"
         id="stop4388" />
    </linearGradient>
    <linearGradient
       id="linearGradient4374"
       inkscape:collect="always">
      <stop
         id="stop4376"
         offset="0"
         style="stop-color:#4c3722;stop-opacity:0" />
      <stop
         style="stop-color:#1a130c;stop-opacity:0.59624416"
         offset="0.78289777"
         id="stop4378" />
      <stop
         id="stop4380"
         offset="1"
         style="stop-color:#241a10;stop-opacity:1" />
    </linearGradient>
    <radialGradient
       inkscape:collect="always"
       xlink:href="#linearGradient4374"
       id="radialGradient4319"
       cx="287.85715"
       cy="782.50964"
       fx="287.85715"
       fy="782.50964"
       r="146.02853"
       gradientTransform="matrix(1.106906,-0.00113593,0,1.3850043,-39.963655,-317.01442)"
       gradientUnits="userSpaceOnUse" />
    <linearGradient
       inkscape:collect="always"
       xlink:href="#linearGradient4382"
       id="linearGradient4390"
       x1="315.35715"
       y1="294.64285"
       x2="350"
       y2="295"
       gradientUnits="userSpaceOnUse"
       gradientTransform="matrix(1.4691086,0,0,1.4691086,-144.2759,309.6195)" />
    <linearGradient
       inkscape:collect="always"
       xlink:href="#linearGradient4382"
       id="linearGradient4417"
       gradientUnits="userSpaceOnUse"
       x1="260.35715"
       y1="296.42856"
       x2="208.57143"
       y2="296.78571"
       gradientTransform="matrix(1.4691086,0,0,1.4691086,-144.2759,309.6195)" />
    <clipPath
       clipPathUnits="userSpaceOnUse"
       id="clipPath4461">
      <rect
         style="color:#000000;clip-rule:nonzero;display:inline;overflow:visible;visibility:visible;opacity:1;isolation:auto;mix-blend-mode:normal;color-interpolation:sRGB;color-interpolation-filters:linearRGB;solid-color:#000000;solid-opacity:1;fill:#96602b;fill-opacity:1;fill-rule:evenodd;stroke:#53331a;stroke-width:1px;stroke-linecap:butt;stroke-linejoin:miter;stroke-miterlimit:4;stroke-dasharray:none;stroke-dashoffset:0;stroke-opacity:1;color-rendering:auto;image-rendering:auto;shape-rendering:auto;text-rendering:auto;enable-background:accumulate"
         id="rect4463"
         width="349.51279"
         height="384.86813"
         x="552.55347"
         y="566.47876" />
    </clipPath>
  </defs>
  <sodipodi:namedview
     id="base"
     pagecolor="#ffffff"
     bordercolor="#666666"
     borderopacity="1.0"
     inkscape:pageopacity="0.0"
     inkscape:pageshadow="2"
     inkscape:zoom="0.49497475"
     inkscape:cx="316.58876"
     inkscape:cy="375.1203"
     inkscape:document-units="px"
     inkscape:current-layer="layer1"
     showgrid="false"
     units="px"
     inkscape:window-width="1366"
     inkscape:window-height="743"
     inkscape:window-x="0"
     inkscape:window-y="0"
     inkscape:window-maximized="0"
     borderlayer="true"
     inkscape:snap-global="false" />
  <metadata
     id="metadata7">
    <rdf:RDF>
      <cc:Work
         rdf:about="">
        <dc:format>image/svg+xml</dc:format>
        <dc:type
           rdf:resource="http://purl.org/dc/dcmitype/StillImage" />
        <dc:title />
      </cc:Work>
    </rdf:RDF>
  </metadata>
  <g
     inkscape:groupmode="layer"
     id="layer2"
     inkscape:label="pic"
     style="display:none">
    <image
       sodipodi:absref="/home/arnaud/catkin_ws/src/rosavatar/third_parties/avatar/data/unai/DSC00027.JPG"
       y="-42.470459"
       x="155.68657"
       id="image4144"
       xlink:href="file:///home/arnaud/Desktop/DSC00027.JPG"
       preserveAspectRatio="none"
       height="724.06067"
       width="965.41425"
       style="color:#000000;clip-rule:nonzero;display:inline;overflow:visible;visibility:visible;opacity:1;isolation:auto;mix-blend-mode:normal;color-interpolation:sRGB;color-interpolation-filters:linearRGB;solid-color:#000000;solid-opacity:1;fill:none;fill-opacity:1;fill-rule:evenodd;stroke:#00ff00;stroke-width:1px;stroke-linecap:butt;stroke-linejoin:miter;stroke-miterlimit:4;stroke-dasharray:none;stroke-dashoffset:0;stroke-opacity:1;color-rendering:auto;image-rendering:auto;shape-rendering:auto;text-rendering:auto;enable-background:accumulate" />
    <image
       style="display:inline"
       sodipodi:absref="/home/arnaud/Desktop/DSC00024.JPG"
       y="515.92078"
       x="370.38486"
       id="image4333"
       xlink:href="file:///home/arnaud/Desktop/DSC00024.JPG"
       preserveAspectRatio="none"
       height="530.23279"
       width="706.97705"
       clip-path="url(#clipPath4461)"
       transform="matrix(1.7043203,0,0,1.7043203,-1363.0684,-967.35614)" />
  </g>
  <g
     inkscape:label="face bg"
     inkscape:groupmode="layer"
     id="layer1"
     transform="translate(0,-452.36216)"
     style="display:inline">
    <rect
       style="color:#000000;clip-rule:nonzero;display:inline;overflow:visible;visibility:visible;opacity:1;isolation:auto;mix-blend-mode:normal;color-interpolation:sRGB;color-interpolation-filters:linearRGB;solid-color:#000000;solid-opacity:1;fill:#4d4d4d;fill-opacity:1;fill-rule:evenodd;stroke:none;stroke-width:1;stroke-linecap:butt;stroke-linejoin:miter;stroke-miterlimit:4;stroke-dasharray:none;stroke-dashoffset:0;stroke-opacity:1;color-rendering:auto;image-rendering:auto;shape-rendering:auto;text-rendering:auto;enable-background:accumulate"
       id="rect4747"
       width="600"
       height="600"
       x="0"
       y="452.36215" />
    <rect
       style="color:#000000;clip-rule:nonzero;display:inline;overflow:visible;visibility:visible;opacity:1;isolation:auto;mix-blend-mode:normal;color-interpolation:sRGB;color-interpolation-filters:linearRGB;solid-color:#000000;solid-opacity:1;fill:none;fill-opacity:1;fill-rule:evenodd;stroke:#96602b;stroke-width:1;stroke-linecap:butt;stroke-linejoin:miter;stroke-miterlimit:4;stroke-dasharray:none;stroke-dashoffset:0;stroke-opacity:1;color-rendering:auto;image-rendering:auto;shape-rendering:auto;text-rendering:auto;enable-background:accumulate"
       id="rect4525"
       width="91.407318"
       height="44.138374"
       x="303.99896"
       y="757.87756" />
    <path
       style="color:#000000;clip-rule:nonzero;display:inline;overflow:visible;visibility:visible;opacity:1;isolation:auto;mix-blend-mode:normal;color-interpolation:sRGB;color-interpolation-filters:linearRGB;solid-color:#000000;solid-opacity:1;fill:#96602b;fill-opacity:1;fill-rule:evenodd;stroke:#53331a;stroke-width:1.4691087px;stroke-linecap:butt;stroke-linejoin:miter;stroke-miterlimit:4;stroke-dasharray:none;stroke-dashoffset:0;stroke-opacity:1;color-rendering:auto;image-rendering:auto;shape-rendering:auto;text-rendering:auto;enable-background:accumulate"
       d="m 427.62712,871.89873 c 5.50916,-1.31169 8.91959,-4.19744 12.06767,-10.75596 3.1481,-6.55853 3.93511,-13.11706 4.45981,-16.00279 0.52468,-2.88576 -4.45981,-6.03384 -2.88575,-10.49364 1.57404,-4.45978 8.13255,-17.83919 8.13255,-23.61068 0,-5.7715 -5.2468,-41.44984 -5.2468,-41.44984 l -24.6736,1.9893 z"
       id="path4195"
       inkscape:connector-curvature="0"
       sodipodi:nodetypes="cssssccc" />
    <path
       style="color:#000000;clip-rule:nonzero;display:inline;overflow:visible;visibility:visible;opacity:1;isolation:auto;mix-blend-mode:normal;color-interpolation:sRGB;color-interpolation-filters:linearRGB;solid-color:#000000;solid-opacity:1;fill:#96602b;fill-opacity:1;fill-rule:evenodd;stroke:#53331a;stroke-width:1.4691087px;stroke-linecap:butt;stroke-linejoin:miter;stroke-miterlimit:4;stroke-dasharray:none;stroke-dashoffset:0;stroke-opacity:1;color-rendering:auto;image-rendering:auto;shape-rendering:auto;text-rendering:auto;enable-background:accumulate"
       d="m 105.41112,802.73747 c 0.37099,8.34764 7.23462,25.41391 7.23462,29.30948 0,3.89555 -0.18551,7.79112 -0.18551,9.83165 0,2.04053 -1.85503,7.04912 -0.74202,11.31568 1.11303,4.26657 5.56511,7.97662 6.86362,11.31568 0.95215,2.44838 6.29272,7.29043 9.07415,9.69945 1.01185,0.87636 15.04124,-7.84442 15.04124,-7.84442 l 4.49716,-81.64774 z"
       id="path4174"
       inkscape:connector-curvature="0"
       sodipodi:nodetypes="csssssccc" />
    <path
       style="color:#000000;clip-rule:nonzero;display:inline;overflow:visible;visibility:visible;opacity:1;isolation:auto;mix-blend-mode:normal;color-interpolation:sRGB;color-interpolation-filters:linearRGB;solid-color:#000000;solid-opacity:1;fill:#96602b;fill-opacity:1;fill-rule:evenodd;stroke:#53331a;stroke-width:1.4691087px;stroke-linecap:butt;stroke-linejoin:miter;stroke-miterlimit:4;stroke-dasharray:none;stroke-dashoffset:0;stroke-opacity:1;color-rendering:auto;image-rendering:auto;shape-rendering:auto;text-rendering:auto;enable-background:accumulate"
       d="m 117.01557,780.3712 c -0.38081,-8.7086 -15.15771,-18.23684 -14.82483,-28.30252 2.72092,-82.27507 48.10622,-200.45869 174.32804,-200.45869 122.39535,0 159.2933,122.94108 164.754,209.23349 0.85968,13.58503 -7.34948,9.4943 -7.34948,21.62644 0,89.1959 -6.04156,103.6771 -12.33774,125.71373 -6.29618,22.03663 -75.25645,128.78615 -144.52663,128.78615 -83.94907,0 -133.28661,-84.72156 -146.29618,-123.75026 C 113.97294,862.8501 119.06299,827.19411 117.01557,780.3712 Z"
       id="path4166"
       inkscape:connector-curvature="0"
       sodipodi:nodetypes="sssssssss" />
    <path
       style="color:#000000;clip-rule:nonzero;display:inline;overflow:visible;visibility:visible;opacity:1;isolation:auto;mix-blend-mode:normal;color-interpolation:sRGB;color-interpolation-filters:linearRGB;solid-color:#000000;solid-opacity:1;fill:none;fill-opacity:1;fill-rule:evenodd;stroke:#53331a;stroke-width:1.4691087px;stroke-linecap:butt;stroke-linejoin:miter;stroke-miterlimit:4;stroke-dasharray:none;stroke-dashoffset:0;stroke-opacity:1;color-rendering:auto;image-rendering:auto;shape-rendering:auto;text-rendering:auto;enable-background:accumulate"
       d="m 252.39597,882.75674 c 0.94385,-1.90328 6.01545,-4.49637 9.86837,-3.61772 4.34064,0.98987 12.5319,12.52417 23.66208,12.52417 11.13018,0 20.94092,-15.01255 27.61904,-14.27055 6.67811,0.74202 3.71006,3.33906 3.71006,3.33906"
       id="path4168"
       inkscape:connector-curvature="0"
       sodipodi:nodetypes="csssc" />
    <path
       style="color:#000000;clip-rule:nonzero;display:inline;overflow:visible;visibility:visible;opacity:1;isolation:auto;mix-blend-mode:normal;color-interpolation:sRGB;color-interpolation-filters:linearRGB;solid-color:#000000;solid-opacity:1;fill:none;fill-opacity:1;fill-rule:evenodd;stroke:#53331a;stroke-width:1.4691087px;stroke-linecap:butt;stroke-linejoin:miter;stroke-miterlimit:4;stroke-dasharray:none;stroke-dashoffset:0;stroke-opacity:1;color-rendering:auto;image-rendering:auto;shape-rendering:auto;text-rendering:auto;enable-background:accumulate"
       d="m 247.66131,856.62225 c -6.82086,9.18193 -10.23129,16.78981 -7.34554,22.29897 2.88575,5.50916 10.49362,9.70661 10.49362,9.70661"
       id="path4170"
       inkscape:connector-curvature="0" />
    <path
       style="color:#000000;clip-rule:nonzero;display:inline;overflow:visible;visibility:visible;opacity:1;isolation:auto;mix-blend-mode:normal;color-interpolation:sRGB;color-interpolation-filters:linearRGB;solid-color:#000000;solid-opacity:1;fill:none;fill-opacity:1;fill-rule:evenodd;stroke:#53331a;stroke-width:1.4691087px;stroke-linecap:butt;stroke-linejoin:miter;stroke-miterlimit:4;stroke-dasharray:none;stroke-dashoffset:0;stroke-opacity:1;color-rendering:auto;image-rendering:auto;shape-rendering:auto;text-rendering:auto;enable-background:accumulate"
       d="m 314.55822,889.41486 c 5.77149,-2.36106 7.87022,-4.19745 10.49362,-9.44427 2.62342,-5.24682 -3.67277,-26.23408 -3.67277,-26.23408"
       id="path4172"
       inkscape:connector-curvature="0" />
    <path
       style="color:#000000;clip-rule:nonzero;display:inline;overflow:visible;visibility:visible;opacity:1;isolation:auto;mix-blend-mode:normal;color-interpolation:sRGB;color-interpolation-filters:linearRGB;solid-color:#000000;solid-opacity:1;fill:url(#radialGradient4319);fill-opacity:1;fill-rule:evenodd;stroke:none;stroke-width:1px;stroke-linecap:butt;stroke-linejoin:miter;stroke-miterlimit:4;stroke-dasharray:none;stroke-dashoffset:0;stroke-opacity:1;color-rendering:auto;image-rendering:auto;shape-rendering:auto;text-rendering:auto;enable-background:accumulate"
       d="m 423.9395,802.18096 c 7.90805,-0.74202 30.1944,14.09823 34.50786,-2.96804 4.3135,-17.06628 -3.59456,-21.51836 -3.59456,-21.51836 0,0 10.78372,-7.42012 15.81611,-20.03432 5.03241,-12.6142 -4.31348,-34.13253 -4.31348,-34.13253 0,0 19.41067,-6.67812 21.56741,-22.26037 2.15675,-15.58224 -20.8485,-34.13254 -20.8485,-34.13254 0,0 7.90806,-9.64616 8.62698,-20.03433 0.7189,-10.38817 -15.81611,-20.77634 -18.69177,-20.03433 -2.87565,0.74203 12.22154,-12.6142 6.47023,-27.45443 -5.75133,-14.84025 -27.31874,-23.00238 -27.31874,-23.00238 0,0 10.06479,-8.16213 6.47023,-22.26035 -3.59457,-14.09822 -33.07004,-19.29231 -33.07004,-19.29231 0,0 11.50262,-9.64615 -0.71892,-20.03433 -12.22154,-10.38817 -30.91331,-8.16213 -30.91331,-8.16213 0,0 7.18915,-12.61419 -5.03238,-17.80829 -12.22155,-5.19408 -45.2916,-7.42011 -45.2916,-7.42011 0,0 2.15674,-17.80829 -7.18914,-19.29231 -9.34588,-1.48404 -39.54029,5.19408 -39.54029,5.19408 0,0 -8.62695,-11.13017 -19.41065,-9.64615 -10.78372,1.48401 -24.44309,17.06626 -24.44309,17.06626 0,0 -9.34587,-12.61419 -20.12957,-3.71005 -10.78374,8.90415 -38.82137,30.42249 -38.82137,30.42249 0,0 -19.41068,-7.42011 -30.9133,-2.96805 -11.50263,4.45207 -25.162,36.35859 -25.162,36.35859 0,0 -17.25393,5.93608 -19.41067,12.6142 -2.15674,6.67811 -0.71893,31.16449 -0.71893,31.16449 0,0 -19.410667,10.38818 -21.567421,22.26037 -2.156725,11.87219 7.189157,17.06627 7.189157,17.06627 0,0 -13.659376,8.90414 -13.659376,19.29232 0,10.38816 15.816116,16.32426 15.816116,16.32426 0,0 -15.097208,15.58225 -15.097208,20.77632 0,5.1941 7.908065,18.55031 7.908065,18.55031 0,0 -10.783713,6.67809 -9.345881,15.58225 1.437816,8.90415 10.06479,20.77634 10.06479,20.77634 0,0 -11.502622,12.61419 -10.783698,23.00236 0.718908,10.38818 21.567413,23.74438 20.12958,31.90651 -1.437817,8.16213 -4.31348,19.29232 5.032399,23.00237 9.345887,3.71007 31.559967,-1.04937 31.559967,-1.04937 0,0 -4.24125,-34.5672 -2.08449,-37.53525 2.15674,-2.96805 -1.43782,-44.52071 3.59457,-50.45681 5.0324,-5.9361 12.22154,-30.42249 15.8161,-41.55266 3.59457,-11.13018 11.50263,-42.29469 20.12961,-43.0367 8.62696,-0.74201 13.65937,-23.00237 22.28632,-25.97041 8.62698,-2.96805 26.59981,2.96804 38.10243,1.48402 11.50265,-1.48402 14.37831,-5.9361 21.56743,-5.9361 7.18915,0 32.35112,5.9361 38.82137,4.45208 6.47023,-1.48403 23.00525,-11.13019 34.50787,-5.19409 11.50262,5.93609 33.78895,7.42012 37.38353,14.09823 3.59457,6.67811 16.53502,2.96806 18.69176,8.90414 2.15674,5.9361 15.81611,23.00237 20.8485,24.48639 5.0324,1.48404 1.43785,14.09823 0,22.26036 -1.43781,8.16213 5.0324,28.19646 9.34589,28.19646 4.31349,0 12.22154,38.58463 11.50263,40.81066 -0.71892,2.22602 5.75131,31.90651 8.62696,34.13254 2.87566,2.22603 -6.47023,25.22841 -6.47023,25.22841 z"
       id="path4202"
       inkscape:connector-curvature="0"
       sodipodi:nodetypes="cscscscssscscscscscscscscscscscscscssscsssssssssssssssscc" />
    <path
       style="color:#000000;clip-rule:nonzero;display:inline;overflow:visible;visibility:visible;opacity:1;isolation:auto;mix-blend-mode:normal;color-interpolation:sRGB;color-interpolation-filters:linearRGB;solid-color:#000000;solid-opacity:1;fill:url(#linearGradient4417);fill-opacity:1;fill-rule:evenodd;stroke:none;stroke-width:1px;stroke-linecap:butt;stroke-linejoin:miter;stroke-miterlimit:4;stroke-dasharray:none;stroke-dashoffset:0;stroke-opacity:1;color-rendering:auto;image-rendering:auto;shape-rendering:auto;text-rendering:auto;enable-background:accumulate"
       d="m 254.55552,749.58761 c 0,0 -32.64854,-16.32427 -37.84261,-17.43728 -5.19409,-1.11303 -44.14971,5.93609 -48.60179,6.6781 -4.45208,0.74201 -24.11538,20.40533 -24.11538,20.40533 0,0 18.55029,-4.08107 25.5994,-4.45208 7.04912,-0.371 28.56746,-1.48402 35.61658,-0.742 7.04911,0.742 23.00237,1.48403 26.71243,0.742 3.71006,-0.742 22.63137,-5.19407 22.63137,-5.19407 z"
       id="path4211"
       inkscape:connector-curvature="0" />
    <path
       style="color:#000000;clip-rule:nonzero;display:inline;overflow:visible;visibility:visible;opacity:1;isolation:auto;mix-blend-mode:normal;color-interpolation:sRGB;color-interpolation-filters:linearRGB;solid-color:#000000;solid-opacity:1;fill:url(#linearGradient4390);fill-opacity:1;fill-rule:evenodd;stroke:none;stroke-width:1px;stroke-linecap:butt;stroke-linejoin:miter;stroke-miterlimit:4;stroke-dasharray:none;stroke-dashoffset:0;stroke-opacity:1;color-rendering:auto;image-rendering:auto;shape-rendering:auto;text-rendering:auto;enable-background:accumulate"
       d="m 313.17445,754.41068 c -1.48402,-5.9361 0,-17.8083 5.1941,-19.66332 5.19407,-1.85503 29.68047,0.37101 35.61656,0 5.9361,-0.37101 38.58462,5.93609 41.55267,5.93609 2.96805,0 15.95326,7.79113 17.06627,10.01716 1.11302,2.22605 3.71006,9.27516 3.71006,9.27516 0,0 -21.14733,-10.75918 -28.19644,-9.64616 -7.04912,1.11302 -28.56747,1.11302 -32.64854,3.33906 -4.08106,2.22604 -14.84024,0.74201 -19.66331,0 -4.82308,-0.74201 -22.63137,0.74201 -22.63137,0.74201 z"
       id="path4213"
       inkscape:connector-curvature="0" />
  </g>
  <g
     inkscape:groupmode="layer"
     id="layer11"
     inkscape:label="eye frame"
     style="display:none">
    <rect
       y="305.51541"
       x="303.99896"
       height="44.138374"
       width="91.407318"
       id="rect4519-0"
       style="color:#000000;clip-rule:nonzero;display:inline;overflow:visible;visibility:visible;opacity:1;isolation:auto;mix-blend-mode:normal;color-interpolation:sRGB;color-interpolation-filters:linearRGB;solid-color:#000000;solid-opacity:1;fill:none;fill-opacity:1;fill-rule:evenodd;stroke:#96602b;stroke-width:1;stroke-linecap:butt;stroke-linejoin:miter;stroke-miterlimit:4;stroke-dasharray:none;stroke-dashoffset:0;stroke-opacity:1;color-rendering:auto;image-rendering:auto;shape-rendering:auto;text-rendering:auto;enable-background:accumulate"
       inkscape:export-filename="eyelid_normal.png"
       inkscape:export-xdpi="89.724113"
       inkscape:export-ydpi="89.724113" />
  </g>
  <g
     inkscape:groupmode="layer"
     id="layer9"
     inkscape:label="eye bg"
     style="display:none">
    <path
       sodipodi:nodetypes="csscssc"
       inkscape:connector-curvature="0"
       id="path4473"
       d="m 247.89616,334.04068 c -0.90512,-4.83994 -17.56137,-18.13452 -30.23299,-18.73951 -12.67161,-0.605 -30.14683,4.33763 -33.46782,5.81451 -4.04713,1.79978 -13.68653,10.20253 -13.68653,10.20253 0,0 21.45783,9.5799 34.4427,9.83364 20.01346,0.39109 28.22358,-5.1557 31.84404,-5.1557 3.62046,0 11.1006,-1.95547 11.1006,-1.95547 z"
       style="color:#000000;clip-rule:nonzero;display:inline;overflow:visible;visibility:visible;opacity:1;isolation:auto;mix-blend-mode:normal;color-interpolation:sRGB;color-interpolation-filters:linearRGB;solid-color:#000000;solid-opacity:1;fill:#b1afab;fill-opacity:1;fill-rule:evenodd;stroke:#7b5335;stroke-width:1.46910858px;stroke-linecap:butt;stroke-linejoin:miter;stroke-miterlimit:4;stroke-dasharray:none;stroke-dashoffset:0;stroke-opacity:1;color-rendering:auto;image-rendering:auto;shape-rendering:auto;text-rendering:auto;enable-background:accumulate" />
    <path
       transform="translate(0,-452.36216)"
       style="color:#000000;clip-rule:nonzero;display:inline;overflow:visible;visibility:visible;opacity:1;isolation:auto;mix-blend-mode:normal;color-interpolation:sRGB;color-interpolation-filters:linearRGB;solid-color:#000000;solid-opacity:1;fill:#b1afab;fill-opacity:1;fill-rule:evenodd;stroke:#7b5335;stroke-width:1.46910858px;stroke-linecap:butt;stroke-linejoin:miter;stroke-miterlimit:4;stroke-dasharray:none;stroke-dashoffset:0;stroke-opacity:1;color-rendering:auto;image-rendering:auto;shape-rendering:auto;text-rendering:auto;enable-background:accumulate"
       d="m 310.7581,786.40284 c 0.90512,-4.83994 17.56137,-18.13452 30.23299,-18.73951 12.67161,-0.605 30.14683,4.33763 33.46782,5.81451 4.04713,1.79978 13.68653,10.20253 13.68653,10.20253 0,0 -21.45783,9.5799 -34.4427,9.83364 -20.01346,0.39109 -28.22358,-5.1557 -31.84404,-5.1557 -3.62046,0 -11.1006,-1.95547 -11.1006,-1.95547 z"
       id="path4227"
       inkscape:connector-curvature="0"
       sodipodi:nodetypes="csscssc"
       inkscape:export-filename="eye_bg.png"
       inkscape:export-xdpi="299"
       inkscape:export-ydpi="299" />
  </g>
  <g
     inkscape:groupmode="layer"
     id="layer10"
     inkscape:label="iris"
     style="display:none">
    <ellipse
       transform="translate(0,-452.36216)"
       style="color:#000000;clip-rule:nonzero;display:inline;overflow:visible;visibility:visible;opacity:1;isolation:auto;mix-blend-mode:normal;color-interpolation:sRGB;color-interpolation-filters:linearRGB;solid-color:#000000;solid-opacity:1;fill:#150f0c;fill-opacity:1;fill-rule:evenodd;stroke:none;stroke-width:0.99999994px;stroke-linecap:butt;stroke-linejoin:miter;stroke-miterlimit:4;stroke-dasharray:none;stroke-dashoffset:0;stroke-opacity:1;color-rendering:auto;image-rendering:auto;shape-rendering:auto;text-rendering:auto;enable-background:accumulate"
       id="path4419"
       cx="349.46994"
       cy="777.99481"
       rx="15.146973"
       ry="15.186663"
       inkscape:export-filename="iris.png"
       inkscape:export-xdpi="90"
       inkscape:export-ydpi="90" />
    <ellipse
       transform="translate(0,-452.36216)"
       style="color:#000000;clip-rule:nonzero;display:inline;overflow:visible;visibility:visible;opacity:1;isolation:auto;mix-blend-mode:normal;color-interpolation:sRGB;color-interpolation-filters:linearRGB;solid-color:#000000;solid-opacity:1;fill:#ffffff;fill-opacity:1;fill-rule:evenodd;stroke:none;stroke-width:1px;stroke-linecap:butt;stroke-linejoin:miter;stroke-miterlimit:4;stroke-dasharray:none;stroke-dashoffset:0;stroke-opacity:1;color-rendering:auto;image-rendering:auto;shape-rendering:auto;text-rendering:auto;enable-background:accumulate"
       id="path4423"
       cx="347.97659"
       cy="777.56714"
       rx="1.4933636"
       ry="1.4972768" />
    <ellipse
       ry="15.186663"
       rx="15.146973"
       cy="325.63266"
       cx="-209.18431"
       id="ellipse4475"
       style="color:#000000;clip-rule:nonzero;display:inline;overflow:visible;visibility:visible;opacity:1;isolation:auto;mix-blend-mode:normal;color-interpolation:sRGB;color-interpolation-filters:linearRGB;solid-color:#000000;solid-opacity:1;fill:#150f0c;fill-opacity:1;fill-rule:evenodd;stroke:none;stroke-width:0.99999994px;stroke-linecap:butt;stroke-linejoin:miter;stroke-miterlimit:4;stroke-dasharray:none;stroke-dashoffset:0;stroke-opacity:1;color-rendering:auto;image-rendering:auto;shape-rendering:auto;text-rendering:auto;enable-background:accumulate"
       transform="scale(-1,1)" />
    <ellipse
       ry="1.4972768"
       rx="1.4933636"
       cy="325.20496"
       cx="-210.67767"
       id="ellipse4477"
       style="color:#000000;clip-rule:nonzero;display:inline;overflow:visible;visibility:visible;opacity:1;isolation:auto;mix-blend-mode:normal;color-interpolation:sRGB;color-interpolation-filters:linearRGB;solid-color:#000000;solid-opacity:1;fill:#ffffff;fill-opacity:1;fill-rule:evenodd;stroke:none;stroke-width:1px;stroke-linecap:butt;stroke-linejoin:miter;stroke-miterlimit:4;stroke-dasharray:none;stroke-dashoffset:0;stroke-opacity:1;color-rendering:auto;image-rendering:auto;shape-rendering:auto;text-rendering:auto;enable-background:accumulate"
       transform="scale(-1,1)" />
  </g>
  <g
     inkscape:groupmode="layer"
     id="layer12"
     inkscape:label="mouth frame"
     style="display:none">
    <rect
       transform="translate(0,-452.36216)"
       y="902.87756"
       x="213.99896"
       height="75.566948"
       width="129.97874"
       id="rect4565"
       style="color:#000000;clip-rule:nonzero;display:inline;overflow:visible;visibility:visible;opacity:1;isolation:auto;mix-blend-mode:normal;color-interpolation:sRGB;color-interpolation-filters:linearRGB;solid-color:#000000;solid-opacity:1;fill:none;fill-opacity:1;fill-rule:evenodd;stroke:#96602b;stroke-width:1;stroke-linecap:butt;stroke-linejoin:miter;stroke-miterlimit:4;stroke-dasharray:none;stroke-dashoffset:0;stroke-opacity:1;color-rendering:auto;image-rendering:auto;shape-rendering:auto;text-rendering:auto;enable-background:accumulate" />
  </g>
  <g
     inkscape:groupmode="layer"
     id="layer3"
     inkscape:label="mouth_open"
     style="display:none">
    <path
       transform="translate(0,-452.36216)"
       style="display:inline;fill:#884b38;fill-opacity:1;fill-rule:evenodd;stroke:none;stroke-width:1px;stroke-linecap:butt;stroke-linejoin:miter;stroke-opacity:1"
       d="m 228.33732,948.74935 c 0,0 11.11407,-9.0597 12.42088,-10.13337 1.30682,-1.07367 25.78661,-23.77916 28.52295,-24.11198 2.73633,-0.33286 10.86404,2.56606 12.35184,2.71179 1.48782,0.14573 5.88681,-1.82677 9.42839,-1.1795 3.5416,0.6473 21.83393,16.19201 26.15163,18.11692 4.31771,1.92495 14.12036,15.0702 14.12036,15.0702 0,0 -13.26605,15.82439 -17.30922,17.23091 -4.04314,1.4065 -32.69028,2.50622 -37.77797,2.30835 -5.08767,-0.19787 -33.68883,-5.70276 -36.13374,-8.34555 -2.44492,-2.64275 -11.77512,-11.66777 -11.77512,-11.66777 z"
       id="path4350"
       inkscape:connector-curvature="0"
       inkscape:transform-center-x="-2.9898488"
       inkscape:transform-center-y="-2.9898478"
       sodipodi:nodetypes="cscssscsssc" />
    <path
       transform="translate(0,-452.36216)"
       style="display:inline;fill:#1a1a1a;fill-rule:evenodd;stroke:#772c26;stroke-width:1.4691087px;stroke-linecap:butt;stroke-linejoin:miter;stroke-opacity:1"
       d="m 249.81755,941.82775 c 4.63829,-1.34824 8.94002,-8.82746 11.34965,-8.89189 2.40963,-0.0645 14.58663,4.43276 18.15737,4.78246 3.57072,0.34973 15.64188,-3.27468 18.58834,-2.68568 2.94649,0.58898 6.43592,7.77436 10.5435,8.77746 4.10757,1.00314 17.69461,6.29411 17.69461,6.29411 0,0 -7.81554,-1.00521 -11.92311,-10e-4 -4.10759,1.00311 -16.51661,2.67933 -19.4631,3.26832 -2.94645,0.58899 -10.03314,0.63735 -13.60385,0.98708 -3.57074,0.34969 -15.22306,-0.39987 -17.6327,-0.46436 -2.40963,-0.0645 -11.4335,-1.77216 -16.07179,-3.12039 -4.63827,-1.34825 -11.17246,-3.56293 -14.1772,-3.42316 3.00474,0.13972 11.90002,-4.17363 16.53828,-5.52188 z"
       id="path4352"
       inkscape:connector-curvature="0"
       inkscape:transform-center-x="-1.8202865"
       inkscape:transform-center-y="-1.6453666"
       sodipodi:nodetypes="scssscssscscs" />
  </g>
  <g
     inkscape:groupmode="layer"
     id="layer4"
     inkscape:label="mouth close"
     style="display:none">
    <path
       inkscape:transform-center-y="-2.9898487"
       inkscape:transform-center-x="-2.989845"
       inkscape:connector-curvature="0"
       id="path4481"
       d="m 228.01253,496.38719 c 0,0 11.11408,-6.12148 12.42087,-7.19515 1.30684,-1.07367 25.78662,-17.90272 28.52295,-18.23555 2.73634,-0.33286 10.86405,2.56607 12.35186,2.71179 1.48782,0.14573 5.88681,-1.82677 9.42839,-1.1795 3.54159,0.6473 21.83392,13.25379 26.15161,15.1787 4.31772,1.92497 14.12037,9.19377 14.12037,9.19377 0,0 -13.26604,15.82439 -17.30921,17.23091 -4.04315,1.4065 -32.69029,2.50622 -37.77799,2.30835 -5.08767,-0.19787 -33.68882,-5.70276 -36.13372,-8.34555 -2.44492,-2.64275 -11.77513,-11.66777 -11.77513,-11.66777 z"
       style="display:inline;fill:#884b38;fill-opacity:1;fill-rule:evenodd;stroke:none;stroke-width:1px;stroke-linecap:butt;stroke-linejoin:miter;stroke-opacity:1" />
    <path
       inkscape:transform-center-y="-1.6456047"
       inkscape:transform-center-x="-1.820285"
       inkscape:connector-curvature="0"
       id="path4483"
       d="m 232.95449,498.0728 c 3.00473,-0.007 9.01425,-0.0183 13.65252,-1.36661 4.63828,-1.34823 11.82577,-7.25341 14.2354,-7.31784 2.40964,-0.0645 14.58664,4.43276 18.15738,4.78247 3.5707,0.34972 15.64187,-3.27468 18.58834,-2.68569 2.94648,0.58898 6.43591,4.83614 10.54349,5.83925 4.10757,1.00313 15.59588,3.32994 15.59588,3.32994"
       style="display:inline;fill:none;fill-rule:evenodd;stroke:#772c26;stroke-width:1.4691087px;stroke-linecap:butt;stroke-linejoin:miter;stroke-opacity:1" />
  </g>
  <g
     inkscape:groupmode="layer"
     id="layer5"
     inkscape:label="eyelid normal"
     style="display:none">
    <path
       transform="translate(0,-452.36216)"
       style="display:inline;fill:#96602b;fill-opacity:1;fill-rule:evenodd;stroke:#000000;stroke-width:0.73455429;stroke-linecap:butt;stroke-linejoin:miter;stroke-miterlimit:4;stroke-dasharray:none;stroke-opacity:1"
       d="m 390.29386,783.97964 c 0,0 -19.5583,-10.54984 -24.89172,-12.26101 -5.33345,-1.71119 -21.12044,-3.20846 -22.82713,-2.99456 -1.70671,0.2139 -23.80546,8.8324 -23.80546,8.8324 0,0 10.02687,-9.94935 13.22692,-11.23273 3.20007,-1.28337 14.29364,-3.63624 19.84042,-3.20845 5.54676,0.42781 21.97376,4.70573 24.53382,5.9891 2.56005,1.2834 10.88022,6.09921 10.88022,6.09921"
       id="path4523"
       inkscape:connector-curvature="0"
       sodipodi:nodetypes="csscsssc" />
    <path
       style="color:#000000;clip-rule:nonzero;display:inline;overflow:visible;visibility:visible;opacity:1;isolation:auto;mix-blend-mode:normal;color-interpolation:sRGB;color-interpolation-filters:linearRGB;solid-color:#000000;solid-opacity:1;fill:#96602b;fill-opacity:1;fill-rule:evenodd;stroke:#96602b;stroke-width:1;stroke-linecap:butt;stroke-linejoin:miter;stroke-miterlimit:4;stroke-dasharray:none;stroke-dashoffset:0;stroke-opacity:1;color-rendering:auto;image-rendering:auto;shape-rendering:auto;text-rendering:auto;enable-background:accumulate"
       d="m 303.99805,305.51562 0,44.13868 91.4082,0 0,-44.13868 -91.4082,0 z m 39.41992,9.73438 c 12.37313,0.0499 27.92759,4.48066 31.04101,5.86523 4.04713,1.79978 13.68555,10.20313 13.68555,10.20313 0,0 -21.45654,9.58024 -34.44141,9.83398 -20.01346,0.39109 -28.22328,-5.15625 -31.84374,-5.15625 -3.62046,0 -11.10157,-1.95507 -11.10157,-1.95507 0.90512,-4.83994 17.5608,-18.13525 30.23242,-18.74024 0.79198,-0.0378 1.60286,-0.0541 2.42774,-0.0508 z"
       id="rect4714"
       inkscape:connector-curvature="0"
       inkscape:export-filename="1.png"
       inkscape:export-xdpi="90"
       inkscape:export-ydpi="90" />
  </g>
  <g
     inkscape:groupmode="layer"
     id="layer6"
     inkscape:label="eyelid close .5"
     style="display:none">
    <path
       inkscape:export-ydpi="90"
       inkscape:export-xdpi="90"
       inkscape:export-filename="1.png"
       inkscape:connector-curvature="0"
       id="path4725"
       d="m 303.99805,305.51562 0,44.13868 91.4082,0 0,-44.13868 -91.4082,0 z m 39.41992,9.73438 c 12.37313,0.0499 27.92759,4.48066 31.04101,5.86523 4.04713,1.79978 13.68555,10.20313 13.68555,10.20313 0,0 -21.45654,9.58024 -34.44141,9.83398 -20.01346,0.39109 -28.22328,-5.15625 -31.84374,-5.15625 -3.62046,0 -11.10157,-1.95507 -11.10157,-1.95507 0.90512,-4.83994 17.5608,-18.13525 30.23242,-18.74024 0.79198,-0.0378 1.60286,-0.0541 2.42774,-0.0508 z"
       style="color:#000000;clip-rule:nonzero;display:inline;overflow:visible;visibility:visible;opacity:1;isolation:auto;mix-blend-mode:normal;color-interpolation:sRGB;color-interpolation-filters:linearRGB;solid-color:#000000;solid-opacity:1;fill:#96602b;fill-opacity:1;fill-rule:evenodd;stroke:#96602b;stroke-width:1;stroke-linecap:butt;stroke-linejoin:miter;stroke-miterlimit:4;stroke-dasharray:none;stroke-dashoffset:0;stroke-opacity:1;color-rendering:auto;image-rendering:auto;shape-rendering:auto;text-rendering:auto;enable-background:accumulate" />
    <path
       style="color:#000000;clip-rule:nonzero;display:inline;overflow:visible;visibility:visible;opacity:1;isolation:auto;mix-blend-mode:normal;color-interpolation:sRGB;color-interpolation-filters:linearRGB;solid-color:#000000;solid-opacity:1;fill:#96602b;fill-opacity:1;fill-rule:evenodd;stroke:#96602b;stroke-width:1;stroke-linecap:butt;stroke-linejoin:miter;stroke-miterlimit:4;stroke-dasharray:none;stroke-dashoffset:0;stroke-opacity:1;color-rendering:auto;image-rendering:auto;shape-rendering:auto;text-rendering:auto;enable-background:accumulate"
       d="m 390.29386,331.61748 c 0,0 -23.66544,-0.54984 -28.99886,-2.26101 -5.33345,-1.71119 -21.12044,-3.20846 -22.82713,-2.99456 -1.70671,0.2139 -23.62689,2.5824 -23.62689,2.5824 0,0 13.95544,-13.69935 17.15549,-14.98273 3.20007,-1.28337 14.29364,-3.63624 19.84042,-3.20845 5.54676,0.42781 21.97376,4.70573 24.53382,5.9891 2.56005,1.2834 10.88022,6.09921 10.88022,6.09921"
       id="path4731"
       inkscape:connector-curvature="0"
       sodipodi:nodetypes="csscsssc" />
    <path
       transform="translate(0,-452.36216)"
       sodipodi:nodetypes="cssc"
       inkscape:connector-curvature="0"
       id="path4493"
       d="m 390.29386,783.97964 c 0,0 -23.66544,-0.54984 -28.99886,-2.26101 -5.33345,-1.71119 -21.12044,-3.20846 -22.82713,-2.99456 -1.70671,0.2139 -23.62689,2.5824 -23.62689,2.5824"
       style="display:inline;fill:none;fill-opacity:1;fill-rule:evenodd;stroke:#000000;stroke-width:0.73455429;stroke-linecap:butt;stroke-linejoin:miter;stroke-miterlimit:4;stroke-dasharray:none;stroke-opacity:1" />
  </g>
  <g
     inkscape:groupmode="layer"
     id="layer8"
     inkscape:label="eyelid close"
     style="display:none">
    <path
       style="color:#000000;clip-rule:nonzero;display:inline;overflow:visible;visibility:visible;opacity:1;isolation:auto;mix-blend-mode:normal;color-interpolation:sRGB;color-interpolation-filters:linearRGB;solid-color:#000000;solid-opacity:1;fill:#96602b;fill-opacity:1;fill-rule:evenodd;stroke:#96602b;stroke-width:1;stroke-linecap:butt;stroke-linejoin:miter;stroke-miterlimit:4;stroke-dasharray:none;stroke-dashoffset:0;stroke-opacity:1;color-rendering:auto;image-rendering:auto;shape-rendering:auto;text-rendering:auto;enable-background:accumulate"
       d="m 303.99805,305.51562 0,44.13868 91.4082,0 0,-44.13868 -91.4082,0 z m 39.41992,9.73438 c 12.37313,0.0499 27.92759,4.48066 31.04101,5.86523 4.04713,1.79978 13.68555,10.20313 13.68555,10.20313 0,0 -21.45654,9.58024 -34.44141,9.83398 -20.01346,0.39109 -28.22328,-5.15625 -31.84374,-5.15625 -3.62046,0 -11.10157,-1.95507 -11.10157,-1.95507 0.90512,-4.83994 17.5608,-18.13525 30.23242,-18.74024 0.79198,-0.0378 1.60286,-0.0541 2.42774,-0.0508 z"
       id="path4728"
       inkscape:connector-curvature="0"
       inkscape:export-filename="3.png"
       inkscape:export-xdpi="90"
       inkscape:export-ydpi="90" />
    <g
       style="display:inline"
       id="g4497"
       transform="translate(0,-452.36216)">
      <path
         style="fill:#96602b;fill-opacity:1;fill-rule:evenodd;stroke:none;stroke-width:0.73455429;stroke-linecap:butt;stroke-linejoin:miter;stroke-miterlimit:4;stroke-dasharray:none;stroke-opacity:1"
         d="m 390.29386,783.97964 c 0,0 -15.52542,5.7019 -20.85111,7.43696 -5.85019,1.90594 -22.47957,2.51738 -29.14058,2.30875 -1.71922,-0.0539 -29.3613,-7.0775 -29.3613,-7.0775 0,0 1.81938,-18.78819 8.55496,-21.83934 3.14062,-1.42267 67.88137,-8.16646 67.88137,-8.16646"
         id="path4495"
         inkscape:connector-curvature="0"
         sodipodi:nodetypes="csscsc" />
      <path
         sodipodi:nodetypes="cssc"
         inkscape:connector-curvature="0"
         id="path4427"
         d="m 390.29386,783.97964 c 0,0 -15.52542,5.7019 -20.85111,7.43696 -5.85019,1.90594 -22.47957,2.51738 -29.14058,2.30875 -1.71922,-0.0539 -29.86638,-7.58258 -29.86638,-7.58258"
         style="fill:#96602b;fill-opacity:1;fill-rule:evenodd;stroke:#000000;stroke-width:0.73455429;stroke-linecap:butt;stroke-linejoin:miter;stroke-miterlimit:4;stroke-dasharray:none;stroke-opacity:1" />
    </g>
  </g>
</svg>
